REM DIRINDEX 1\2\4\18,1\2\4\19,1\2\5\20,1\2\5\21,1\2\6\22,1\2\7\23,1\2\8\24,1\2\8\25,1\2\9\26,1\2\10\27,1\3\11\28,1\3\11\29,1\3\11\30,1\3\11\31,1\3\12\32,1\3\12\33,1\3\12\34,1\3\12\35,1\3\13\36,1\3\13\37,1\3\14\38,1\3\14\39,1\3\15\40,1\3\15\41,1\3\15\42,1\3\16\43,1\3\16\44,1\3\17\45,1\3\17\46
REM DIRNAME folder01,folder02,folder03,folder04,folder05,folder06,folder07,folder08,folder09,folder10,folder11,folder12,folder13,folder14,folder15,folder16,folder17,folder18,folder19,folder20,folder21,folder22,folder23,folder24,folder25,folder26,folder27,folder28,folder29,folder30,folder31,folder32,folder33,folder34,folder35,folder36,folder37,folder38,folder39,folder40,folder41,folder42,folder43,folder44,folder45,folder46
TITLE ""
FILE "03.mp3" MP3
  TRACK 01 AUDIO
    TITLE "0:"
    INDEX 01 00:00:00
  TRACK 02 AUDIO
    TITLE "18:cjc024_0401"
    INDEX 01 00:00:13
  TRACK 03 AUDIO
    TITLE "0:"
    INDEX 01 00:01:36
  TRACK 04 AUDIO
    TITLE "19:cjc024_0402"
    INDEX 01 00:01:66
  TRACK 05 AUDIO
    TITLE "0:"
    INDEX 01 00:03:41
  TRACK 06 AUDIO
    TITLE "18:cjc024_0403"
    INDEX 01 00:04:40
  TRACK 07 AUDIO
    TITLE "0:"
    INDEX 01 00:05:63
  TRACK 08 AUDIO
    TITLE "19:cjc024_0404"
    INDEX 01 00:06:20
  TRACK 09 AUDIO
    TITLE "0:"
    INDEX 01 00:08:01
  TRACK 10 AUDIO
    TITLE "18:cjc024_0405"
    INDEX 01 00:09:12
  TRACK 11 AUDIO
    TITLE "0:"
    INDEX 01 00:10:41
  TRACK 12 AUDIO
    TITLE "19:cjc024_0406"
    INDEX 01 00:10:65
  TRACK 13 AUDIO
    TITLE "0:"
    INDEX 01 00:13:57
  TRACK 14 AUDIO
    TITLE "18:cjc024_0407"
    INDEX 01 00:14:54
  TRACK 15 AUDIO
    TITLE "0:"
    INDEX 01 00:15:60
  TRACK 16 AUDIO
    TITLE "19:cjc024_0408"
    INDEX 01 00:16:08
  TRACK 17 AUDIO
    TITLE "0:"
    INDEX 01 00:19:03
  TRACK 18 AUDIO
    TITLE "18:cjc024_0409"
    INDEX 01 00:20:04
  TRACK 19 AUDIO
    TITLE "0:"
    INDEX 01 00:21:04
  TRACK 20 AUDIO
    TITLE "19:cjc024_0410"
    INDEX 01 00:21:39
  TRACK 21 AUDIO
    TITLE "0:"
    INDEX 01 00:23:06
  TRACK 22 AUDIO
    TITLE "18:cjc024_0411"
    INDEX 01 00:24:06
  TRACK 23 AUDIO
    TITLE "0:"
    INDEX 01 00:25:27
  TRACK 24 AUDIO
    TITLE "19:cjc024_0412"
    INDEX 01 00:25:50
  TRACK 25 AUDIO
    TITLE "0:"
    INDEX 01 00:27:73
  TRACK 26 AUDIO
    TITLE "18:cjc024_0413"
    INDEX 01 00:29:03
  TRACK 27 AUDIO
    TITLE "0:"
    INDEX 01 00:30:14
  TRACK 28 AUDIO
    TITLE "19:cjc024_0414"
    INDEX 01 00:30:42
  TRACK 29 AUDIO
    TITLE "0:"
    INDEX 01 00:32:29
  TRACK 30 AUDIO
    TITLE "18:cjc024_0415"
    INDEX 01 00:33:28
  TRACK 31 AUDIO
    TITLE "0:"
    INDEX 01 00:34:32
  TRACK 32 AUDIO
    TITLE "19:cjc024_0416"
    INDEX 01 00:34:61
  TRACK 33 AUDIO
    TITLE "0:"
    INDEX 01 00:37:30
  TRACK 34 AUDIO
    TITLE "18:cjc024_0417"
    INDEX 01 00:38:37
  TRACK 35 AUDIO
    TITLE "0:"
    INDEX 01 00:39:39
  TRACK 36 AUDIO
    TITLE "19:cjc024_0418"
    INDEX 01 00:39:70
  TRACK 37 AUDIO
    TITLE "0:"
    INDEX 01 00:42:08
  TRACK 38 AUDIO
    TITLE "18:cjc024_0419"
    INDEX 01 00:43:23
  TRACK 39 AUDIO
    TITLE "0:"
    INDEX 01 00:44:26
  TRACK 40 AUDIO
    TITLE "19:cjc024_0420"
    INDEX 01 00:44:50
  TRACK 41 AUDIO
    TITLE "0:"
    INDEX 01 00:46:15
  TRACK 42 AUDIO
    TITLE "18:cjc024_0421"
    INDEX 01 00:47:15
  TRACK 43 AUDIO
    TITLE "0:"
    INDEX 01 00:48:44
  TRACK 44 AUDIO
    TITLE "19:cjc024_0422"
    INDEX 01 00:48:67
  TRACK 45 AUDIO
    TITLE "0:"
    INDEX 01 00:50:58
  TRACK 46 AUDIO
    TITLE "18:cjc024_0423"
    INDEX 01 00:51:58
  TRACK 47 AUDIO
    TITLE "0:"
    INDEX 01 00:53:00
  TRACK 48 AUDIO
    TITLE "19:cjc024_0424"
    INDEX 01 00:53:27
  TRACK 49 AUDIO
    TITLE "0:"
    INDEX 01 00:55:30
  TRACK 50 AUDIO
    TITLE "18:cjc024_0425"
    INDEX 01 00:56:33
  TRACK 51 AUDIO
    TITLE "0:"
    INDEX 01 00:57:37
  TRACK 52 AUDIO
    TITLE "19:cjc024_0426"
    INDEX 01 00:57:60
  TRACK 53 AUDIO
    TITLE "0:"
    INDEX 01 00:59:55
  TRACK 54 AUDIO
    TITLE "18:cjc024_0427"
    INDEX 01 01:00:55
  TRACK 55 AUDIO
    TITLE "0:"
    INDEX 01 01:02:14
  TRACK 56 AUDIO
    TITLE "19:cjc024_0428"
    INDEX 01 01:02:40
  TRACK 57 AUDIO
    TITLE "0:"
    INDEX 01 01:04:45
  TRACK 58 AUDIO
    TITLE "18:cjc024_0429"
    INDEX 01 01:05:46
  TRACK 59 AUDIO
    TITLE "0:"
    INDEX 01 01:06:43
  TRACK 60 AUDIO
    TITLE "19:cjc024_0430"
    INDEX 01 01:06:69
  TRACK 61 AUDIO
    TITLE "0:"
    INDEX 01 01:09:40
  TRACK 62 AUDIO
    TITLE "18:cjc024_0431"
    INDEX 01 01:10:41
  TRACK 63 AUDIO
    TITLE "0:"
    INDEX 01 01:11:39
  TRACK 64 AUDIO
    TITLE "19:cjc024_0432"
    INDEX 01 01:11:66
  TRACK 65 AUDIO
    TITLE "0:"
    INDEX 01 01:13:45
  TRACK 66 AUDIO
    TITLE "18:cjc024_0433"
    INDEX 01 01:14:45
  TRACK 67 AUDIO
    TITLE "0:"
    INDEX 01 01:15:42
  TRACK 68 AUDIO
    TITLE "19:cjc024_0434"
    INDEX 01 01:15:68
  TRACK 69 AUDIO
    TITLE "0:"
    INDEX 01 01:18:07
  TRACK 70 AUDIO
    TITLE "18:cjc024_0435"
    INDEX 01 01:19:07
  TRACK 71 AUDIO
    TITLE "0:"
    INDEX 01 01:20:10
  TRACK 72 AUDIO
    TITLE "19:cjc024_0436"
    INDEX 01 01:20:32
  TRACK 73 AUDIO
    TITLE "0:"
    INDEX 01 01:22:01
  TRACK 74 AUDIO
    TITLE "18:cjc024_0437"
    INDEX 01 01:23:01
  TRACK 75 AUDIO
    TITLE "0:"
    INDEX 01 01:24:04
  TRACK 76 AUDIO
    TITLE "19:cjc024_0438"
    INDEX 01 01:24:36
  TRACK 77 AUDIO
    TITLE "0:"
    INDEX 01 01:25:66
  TRACK 78 AUDIO
    TITLE "18:cjc024_0439"
    INDEX 01 01:26:66
  TRACK 79 AUDIO
    TITLE "0:"
    INDEX 01 01:27:63
  TRACK 80 AUDIO
    TITLE "19:cjc024_0440"
    INDEX 01 01:28:12
  TRACK 81 AUDIO
    TITLE "0:"
    INDEX 01 01:29:39
  TRACK 82 AUDIO
    TITLE "18:cjc024_0441"
    INDEX 01 01:30:40
  TRACK 83 AUDIO
    TITLE "0:"
    INDEX 01 01:31:51
  TRACK 84 AUDIO
    TITLE "19:cjc024_0442"
    INDEX 01 01:31:73
  TRACK 85 AUDIO
    TITLE "0:"
    INDEX 01 01:33:48
  TRACK 86 AUDIO
    TITLE "18:cjc024_0443"
    INDEX 01 01:34:46
  TRACK 87 AUDIO
    TITLE "0:"
    INDEX 01 01:35:41
  TRACK 88 AUDIO
    TITLE "19:cjc024_0444"
    INDEX 01 01:35:65
  TRACK 89 AUDIO
    TITLE "0:"
    INDEX 01 01:37:36
  TRACK 90 AUDIO
    TITLE "18:cjc024_0445"
    INDEX 01 01:38:43
  TRACK 91 AUDIO
    TITLE "0:"
    INDEX 01 01:39:49
  TRACK 92 AUDIO
    TITLE "19:cjc024_0446"
    INDEX 01 01:40:05
  TRACK 93 AUDIO
    TITLE "0:"
    INDEX 01 01:42:02
  TRACK 94 AUDIO
    TITLE "18:cjc024_0447"
    INDEX 01 01:43:05
  TRACK 95 AUDIO
    TITLE "0:"
    INDEX 01 01:44:17
  TRACK 96 AUDIO
    TITLE "19:cjc024_0448"
    INDEX 01 01:44:50
  TRACK 97 AUDIO
    TITLE "0:"
    INDEX 01 01:46:61
  TRACK 98 AUDIO
    TITLE "18:cjc024_0449"
    INDEX 01 01:47:62
  TRACK 99 AUDIO
    TITLE "0:"
    INDEX 01 01:49:02
  TRACK 100 AUDIO
    TITLE "19:cjc024_0450"
    INDEX 01 01:49:33
  TRACK 101 AUDIO
    TITLE "0:"
    INDEX 01 01:51:60
  TRACK 102 AUDIO
    TITLE "18:cjc024_0451"
    INDEX 01 01:52:61
  TRACK 103 AUDIO
    TITLE "0:"
    INDEX 01 01:54:13
  TRACK 104 AUDIO
    TITLE "19:cjc024_0452"
    INDEX 01 01:54:42
  TRACK 105 AUDIO
    TITLE "0:"
    INDEX 01 01:57:33
  TRACK 106 AUDIO
    TITLE "18:cjc024_0453"
    INDEX 01 01:58:40
  TRACK 107 AUDIO
    TITLE "0:"
    INDEX 01 01:59:55
  TRACK 108 AUDIO
    TITLE "19:cjc024_0454"
    INDEX 01 02:00:06
  TRACK 109 AUDIO
    TITLE "0:"
    INDEX 01 02:02:17
  TRACK 110 AUDIO
    TITLE "18:cjc024_0455"
    INDEX 01 02:03:16
  TRACK 111 AUDIO
    TITLE "0:"
    INDEX 01 02:04:12
  TRACK 112 AUDIO
    TITLE "19:cjc024_0456"
    INDEX 01 02:04:41
  TRACK 113 AUDIO
    TITLE "0:"
    INDEX 01 02:06:36
  TRACK 114 AUDIO
    TITLE "18:cjc024_0457"
    INDEX 01 02:07:35
  TRACK 115 AUDIO
    TITLE "0:"
    INDEX 01 02:08:41
  TRACK 116 AUDIO
    TITLE "19:cjc024_0458"
    INDEX 01 02:08:70
  TRACK 117 AUDIO
    TITLE "0:"
    INDEX 01 02:10:43
  TRACK 118 AUDIO
    TITLE "18:cjc024_0459"
    INDEX 01 02:11:43
  TRACK 119 AUDIO
    TITLE "0:"
    INDEX 01 02:12:52
  TRACK 120 AUDIO
    TITLE "19:cjc024_0460"
    INDEX 01 02:13:03
  TRACK 121 AUDIO
    TITLE "0:"
    INDEX 01 02:15:17
  TRACK 122 AUDIO
    TITLE "18:cjc024_0461"
    INDEX 01 02:16:19
  TRACK 123 AUDIO
    TITLE "0:"
    INDEX 01 02:17:26
  TRACK 124 AUDIO
    TITLE "19:cjc024_0462"
    INDEX 01 02:17:53
  TRACK 125 AUDIO
    TITLE "0:"
    INDEX 01 02:19:35
  TRACK 126 AUDIO
    TITLE "18:cjc024_0463"
    INDEX 01 02:20:36
  TRACK 127 AUDIO
    TITLE "0:"
    INDEX 01 02:21:37
  TRACK 128 AUDIO
    TITLE "19:cjc024_0464"
    INDEX 01 02:21:71
  TRACK 129 AUDIO
    TITLE "0:"
    INDEX 01 02:23:62
  TRACK 130 AUDIO
    TITLE "18:cjc024_0465"
    INDEX 01 02:24:63
  TRACK 131 AUDIO
    TITLE "0:"
    INDEX 01 02:25:70
  TRACK 132 AUDIO
    TITLE "19:cjc024_0466"
    INDEX 01 02:26:17
  TRACK 133 AUDIO
    TITLE "0:"
    INDEX 01 02:28:18
  TRACK 134 AUDIO
    TITLE "18:cjc024_0467"
    INDEX 01 02:29:21
  TRACK 135 AUDIO
    TITLE "0:"
    INDEX 01 02:30:07
  TRACK 136 AUDIO
    TITLE "19:cjc024_0468"
    INDEX 01 02:30:34
  TRACK 137 AUDIO
    TITLE "0:"
    INDEX 01 02:32:02
  TRACK 138 AUDIO
    TITLE "18:cjc024_0469"
    INDEX 01 02:33:03
  TRACK 139 AUDIO
    TITLE "0:"
    INDEX 01 02:34:26
  TRACK 140 AUDIO
    TITLE "19:cjc024_0470"
    INDEX 01 02:34:54
  TRACK 141 AUDIO
    TITLE "0:"
    INDEX 01 02:36:45
  TRACK 142 AUDIO
    TITLE "18:cjc024_0471"
    INDEX 01 02:37:46
  TRACK 143 AUDIO
    TITLE "0:"
    INDEX 01 02:38:54
  TRACK 144 AUDIO
    TITLE "19:cjc024_0472"
    INDEX 01 02:39:00
  TRACK 145 AUDIO
    TITLE "0:"
    INDEX 01 02:41:21
  TRACK 146 AUDIO
    TITLE "18:cjc024_0473"
    INDEX 01 02:42:20
  TRACK 147 AUDIO
    TITLE "0:"
    INDEX 01 02:43:31
  TRACK 148 AUDIO
    TITLE "19:cjc024_0474"
    INDEX 01 02:43:55
  TRACK 149 AUDIO
    TITLE "0:"
    INDEX 01 02:46:47
  TRACK 150 AUDIO
    TITLE "18:cjc024_0475"
    INDEX 01 02:47:45
  TRACK 151 AUDIO
    TITLE "0:"
    INDEX 01 02:48:50
  TRACK 152 AUDIO
    TITLE "19:cjc024_0476"
    INDEX 01 02:49:00
  TRACK 153 AUDIO
    TITLE "0:"
    INDEX 01 02:51:15
  TRACK 154 AUDIO
    TITLE "18:cjc024_0477"
    INDEX 01 02:52:16
  TRACK 155 AUDIO
    TITLE "0:"
    INDEX 01 02:53:35
  TRACK 156 AUDIO
    TITLE "19:cjc024_0478"
    INDEX 01 02:53:61
  TRACK 157 AUDIO
    TITLE "0:"
    INDEX 01 02:55:46
  TRACK 158 AUDIO
    TITLE "18:cjc024_0479"
    INDEX 01 02:56:48
  TRACK 159 AUDIO
    TITLE "0:"
    INDEX 01 02:57:72
  TRACK 160 AUDIO
    TITLE "19:cjc024_0480"
    INDEX 01 02:58:23
  TRACK 161 AUDIO
    TITLE "0:"
    INDEX 01 03:00:24
  TRACK 162 AUDIO
    TITLE "18:cjc024_0481"
    INDEX 01 03:01:25
  TRACK 163 AUDIO
    TITLE "0:"
    INDEX 01 03:02:48
  TRACK 164 AUDIO
    TITLE "19:cjc024_0482"
    INDEX 01 03:03:03
  TRACK 165 AUDIO
    TITLE "0:"
    INDEX 01 03:04:67
  TRACK 166 AUDIO
    TITLE "18:cjc024_0483"
    INDEX 01 03:06:05
  TRACK 167 AUDIO
    TITLE "0:"
    INDEX 01 03:07:14
  TRACK 168 AUDIO
    TITLE "19:cjc024_0484"
    INDEX 01 03:07:38
  TRACK 169 AUDIO
    TITLE "0:"
    INDEX 01 03:10:30
  TRACK 170 AUDIO
    TITLE "18:cjc024_0485"
    INDEX 01 03:11:29
  TRACK 171 AUDIO
    TITLE "0:"
    INDEX 01 03:12:43
  TRACK 172 AUDIO
    TITLE "19:cjc024_0486"
    INDEX 01 03:12:68
  TRACK 173 AUDIO
    TITLE "0:"
    INDEX 01 03:14:73
  TRACK 174 AUDIO
    TITLE "18:cjc024_0487"
    INDEX 01 03:15:72
  TRACK 175 AUDIO
    TITLE "0:"
    INDEX 01 03:17:10
  TRACK 176 AUDIO
    TITLE "19:cjc024_0488"
    INDEX 01 03:17:42
  TRACK 177 AUDIO
    TITLE "0:"
    INDEX 01 03:20:24
  TRACK 178 AUDIO
    TITLE "18:cjc024_0489"
    INDEX 01 03:21:22
  TRACK 179 AUDIO
    TITLE "0:"
    INDEX 01 03:22:29
  TRACK 180 AUDIO
    TITLE "19:cjc024_0490"
    INDEX 01 03:22:59
  TRACK 181 AUDIO
    TITLE "0:"
    INDEX 01 03:25:12
  TRACK 182 AUDIO
    TITLE "18:cjc024_0491"
    INDEX 01 03:26:13
  TRACK 183 AUDIO
    TITLE "0:"
    INDEX 01 03:27:28
  TRACK 184 AUDIO
    TITLE "19:cjc024_0492"
    INDEX 01 03:27:60
  TRACK 185 AUDIO
    TITLE "0:"
    INDEX 01 03:30:05
  TRACK 186 AUDIO
    TITLE "18:cjc024_0493"
    INDEX 01 03:31:05
  TRACK 187 AUDIO
    TITLE "0:"
    INDEX 01 03:32:22
  TRACK 188 AUDIO
    TITLE "19:cjc024_0494"
    INDEX 01 03:32:47
  TRACK 189 AUDIO
    TITLE "0:"
    INDEX 01 03:35:20
  TRACK 190 AUDIO
    TITLE "18:cjc024_0495"
    INDEX 01 03:36:20
  TRACK 191 AUDIO
    TITLE "0:"
    INDEX 01 03:37:45
  TRACK 192 AUDIO
    TITLE "19:cjc024_0496"
    INDEX 01 03:37:70
  TRACK 193 AUDIO
    TITLE "0:"
    INDEX 01 03:40:31
  TRACK 194 AUDIO
    TITLE "18:cjc024_0497"
    INDEX 01 03:41:33
  TRACK 195 AUDIO
    TITLE "0:"
    INDEX 01 03:42:40
  TRACK 196 AUDIO
    TITLE "19:cjc024_0498"
    INDEX 01 03:42:73
  TRACK 197 AUDIO
    TITLE "0:"
    INDEX 01 03:45:50
  TRACK 198 AUDIO
    TITLE "18:cjc024_0499"
    INDEX 01 03:46:51
  TRACK 199 AUDIO
    TITLE "0:"
    INDEX 01 03:47:64
  TRACK 200 AUDIO
    TITLE "19:cjc024_0500"
    INDEX 01 03:48:13
  TRACK 201 AUDIO
    TITLE "0:"
    INDEX 01 03:50:02
  TRACK 202 AUDIO
    TITLE "18:cjc024_0501"
    INDEX 01 03:51:03
  TRACK 203 AUDIO
    TITLE "0:"
    INDEX 01 03:52:11
  TRACK 204 AUDIO
    TITLE "19:cjc024_0502"
    INDEX 01 03:52:34
  TRACK 205 AUDIO
    TITLE "0:"
    INDEX 01 03:54:45
  TRACK 206 AUDIO
    TITLE "18:cjc024_0503"
    INDEX 01 03:55:44
  TRACK 207 AUDIO
    TITLE "0:"
    INDEX 01 03:56:56
  TRACK 208 AUDIO
    TITLE "19:cjc024_0504"
    INDEX 01 03:57:08
  TRACK 209 AUDIO
    TITLE "0:"
    INDEX 01 03:59:03
  TRACK 210 AUDIO
    TITLE "18:cjc024_0505"
    INDEX 01 04:00:02
  TRACK 211 AUDIO
    TITLE "0:"
    INDEX 01 04:01:23
  TRACK 212 AUDIO
    TITLE "19:cjc024_0506"
    INDEX 01 04:01:47
  TRACK 213 AUDIO
    TITLE "0:"
    INDEX 01 04:03:28
  TRACK 214 AUDIO
    TITLE "18:cjc024_0507"
    INDEX 01 04:04:28
  TRACK 215 AUDIO
    TITLE "0:"
    INDEX 01 04:05:58
  TRACK 216 AUDIO
    TITLE "19:cjc024_0508"
    INDEX 01 04:06:09
  TRACK 217 AUDIO
    TITLE "0:"
    INDEX 01 04:07:69
  TRACK 218 AUDIO
    TITLE "18:cjc024_0509"
    INDEX 01 04:08:72
  TRACK 219 AUDIO
    TITLE "0:"
    INDEX 01 04:10:15
  TRACK 220 AUDIO
    TITLE "19:cjc024_0510"
    INDEX 01 04:10:40
  TRACK 221 AUDIO
    TITLE "0:"
    INDEX 01 04:12:13
  TRACK 222 AUDIO
    TITLE "18:cjc024_0511"
    INDEX 01 04:13:13
  TRACK 223 AUDIO
    TITLE "0:"
    INDEX 01 04:14:34
  TRACK 224 AUDIO
    TITLE "19:cjc024_0512"
    INDEX 01 04:14:57
  TRACK 225 AUDIO
    TITLE "0:"
    INDEX 01 04:17:26
  TRACK 226 AUDIO
    TITLE "18:cjc024_0513"
    INDEX 01 04:18:26
  TRACK 227 AUDIO
    TITLE "0:"
    INDEX 01 04:19:41
  TRACK 228 AUDIO
    TITLE "19:cjc024_0514"
    INDEX 01 04:19:66
  TRACK 229 AUDIO
    TITLE "0:"
    INDEX 01 04:21:48
  TRACK 230 AUDIO
    TITLE "18:cjc024_0515"
    INDEX 01 04:22:49
  TRACK 231 AUDIO
    TITLE "0:"
    INDEX 01 04:23:60
  TRACK 232 AUDIO
    TITLE "19:cjc024_0516"
    INDEX 01 04:24:11
  TRACK 233 AUDIO
    TITLE "0:"
    INDEX 01 04:25:57
  TRACK 234 AUDIO
    TITLE "18:cjc024_0517"
    INDEX 01 04:26:59
  TRACK 235 AUDIO
    TITLE "0:"
    INDEX 01 04:28:03
  TRACK 236 AUDIO
    TITLE "19:cjc024_0518"
    INDEX 01 04:28:28
  TRACK 237 AUDIO
    TITLE "0:"
    INDEX 01 04:31:01
  TRACK 238 AUDIO
    TITLE "18:cjc024_0519"
    INDEX 01 04:32:00
  TRACK 239 AUDIO
    TITLE "0:"
    INDEX 01 04:33:06
  TRACK 240 AUDIO
    TITLE "19:cjc024_0520"
    INDEX 01 04:33:31
  TRACK 241 AUDIO
    TITLE "0:"
    INDEX 01 04:34:70
  TRACK 242 AUDIO
    TITLE "18:cjc024_0521"
    INDEX 01 04:35:71
  TRACK 243 AUDIO
    TITLE "0:"
    INDEX 01 04:37:19
  TRACK 244 AUDIO
    TITLE "19:cjc024_0522"
    INDEX 01 04:37:49
  TRACK 245 AUDIO
    TITLE "0:"
    INDEX 01 04:39:40
  TRACK 246 AUDIO
    TITLE "18:cjc024_0523"
    INDEX 01 04:40:55
  TRACK 247 AUDIO
    TITLE "0:"
    INDEX 01 04:41:74
  TRACK 248 AUDIO
    TITLE "19:cjc024_0524"
    INDEX 01 04:42:28
  TRACK 249 AUDIO
    TITLE "0:"
    INDEX 01 04:44:15
  TRACK 250 AUDIO
    TITLE "18:cjc024_0525"
    INDEX 01 04:45:15
  TRACK 251 AUDIO
    TITLE "0:"
    INDEX 01 04:46:32
  TRACK 252 AUDIO
    TITLE "19:cjc024_0526"
    INDEX 01 04:46:54
  TRACK 253 AUDIO
    TITLE "0:"
    INDEX 01 04:49:11
  TRACK 254 AUDIO
    TITLE "18:cjc024_0527"
    INDEX 01 04:50:08
  TRACK 255 AUDIO
    TITLE "0:"
    INDEX 01 04:51:12
  TRACK 256 AUDIO
    TITLE "19:cjc024_0528"
    INDEX 01 04:51:35
  TRACK 257 AUDIO
    TITLE "0:"
    INDEX 01 04:53:56
  TRACK 258 AUDIO
    TITLE "18:cjc024_0529"
    INDEX 01 04:54:63
  TRACK 259 AUDIO
    TITLE "0:"
    INDEX 01 04:55:66
  TRACK 260 AUDIO
    TITLE "19:cjc024_0530"
    INDEX 01 04:56:19
  TRACK 261 AUDIO
    TITLE "0:"
    INDEX 01 04:58:59
  TRACK 262 AUDIO
    TITLE "18:cjc024_0531"
    INDEX 01 04:59:58
  TRACK 263 AUDIO
    TITLE "0:"
    INDEX 01 05:00:56
  TRACK 264 AUDIO
    TITLE "19:cjc024_0532"
    INDEX 01 05:01:16
  TRACK 265 AUDIO
    TITLE "0:"
    INDEX 01 05:04:28
  TRACK 266 AUDIO
    TITLE "18:cjc024_0533"
    INDEX 01 05:05:27
  TRACK 267 AUDIO
    TITLE "0:"
    INDEX 01 05:06:54
  TRACK 268 AUDIO
    TITLE "19:cjc024_0534"
    INDEX 01 05:07:11
  TRACK 269 AUDIO
    TITLE "0:"
    INDEX 01 05:09:47
  TRACK 270 AUDIO
    TITLE "18:cjc024_0535"
    INDEX 01 05:10:46
  TRACK 271 AUDIO
    TITLE "0:"
    INDEX 01 05:11:63
  TRACK 272 AUDIO
    TITLE "19:cjc024_0536"
    INDEX 01 05:12:16
  TRACK 273 AUDIO
    TITLE "0:"
    INDEX 01 05:14:01
  TRACK 274 AUDIO
    TITLE "18:cjc024_0537"
    INDEX 01 05:15:04
  TRACK 275 AUDIO
    TITLE "0:"
    INDEX 01 05:16:29
  TRACK 276 AUDIO
    TITLE "19:cjc024_0538"
    INDEX 01 05:16:53
  TRACK 277 AUDIO
    TITLE "0:"
    INDEX 01 05:18:24
  TRACK 278 AUDIO
    TITLE "18:cjc024_0539"
    INDEX 01 05:19:24
  TRACK 279 AUDIO
    TITLE "0:"
    INDEX 01 05:20:35
  TRACK 280 AUDIO
    TITLE "19:cjc024_0540"
    INDEX 01 05:20:72
  TRACK 281 AUDIO
    TITLE "0:"
    INDEX 01 05:23:19
  TRACK 282 AUDIO
    TITLE "18:cjc024_0541"
    INDEX 01 05:24:17
  TRACK 283 AUDIO
    TITLE "0:"
    INDEX 01 05:25:30
  TRACK 284 AUDIO
    TITLE "19:cjc024_0542"
    INDEX 01 05:25:56
  TRACK 285 AUDIO
    TITLE "0:"
    INDEX 01 05:28:05
  TRACK 286 AUDIO
    TITLE "18:cjc024_0543"
    INDEX 01 05:29:06
  TRACK 287 AUDIO
    TITLE "0:"
    INDEX 01 05:30:02
  TRACK 288 AUDIO
    TITLE "19:cjc024_0544"
    INDEX 01 05:30:27
  TRACK 289 AUDIO
    TITLE "0:"
    INDEX 01 05:32:01
  TRACK 290 AUDIO
    TITLE "18:cjc024_0545"
    INDEX 01 05:33:02
  TRACK 291 AUDIO
    TITLE "0:"
    INDEX 01 05:34:27
  TRACK 292 AUDIO
    TITLE "19:cjc024_0546"
    INDEX 01 05:34:54
  TRACK 293 AUDIO
    TITLE "0:"
    INDEX 01 05:36:55
  TRACK 294 AUDIO
    TITLE "18:cjc024_0547"
    INDEX 01 05:37:55
  TRACK 295 AUDIO
    TITLE "0:"
    INDEX 01 05:38:72
  TRACK 296 AUDIO
    TITLE "19:cjc024_0548"
    INDEX 01 05:39:20
  TRACK 297 AUDIO
    TITLE "0:"
    INDEX 01 05:40:67
  TRACK 298 AUDIO
    TITLE "18:cjc024_0549"
    INDEX 01 05:42:01
  TRACK 299 AUDIO
    TITLE "0:"
    INDEX 01 05:43:08
  TRACK 300 AUDIO
    TITLE "19:cjc024_0550"
    INDEX 01 05:43:34
  TRACK 301 AUDIO
    TITLE "0:"
    INDEX 01 05:45:19
  TRACK 302 AUDIO
    TITLE "18:cjc024_0551"
    INDEX 01 05:46:20
  TRACK 303 AUDIO
    TITLE "0:"
    INDEX 01 05:47:32
  TRACK 304 AUDIO
    TITLE "19:cjc024_0552"
    INDEX 01 05:47:55
  TRACK 305 AUDIO
    TITLE "0:"
    INDEX 01 05:50:03
  TRACK 306 AUDIO
    TITLE "18:cjc024_0553"
    INDEX 01 05:51:02
  TRACK 307 AUDIO
    TITLE "0:"
    INDEX 01 05:52:19
  TRACK 308 AUDIO
    TITLE "19:cjc024_0554"
    INDEX 01 05:52:43
  TRACK 309 AUDIO
    TITLE "0:"
    INDEX 01 05:54:26
  TRACK 310 AUDIO
    TITLE "18:cjc024_0555"
    INDEX 01 05:55:25
  TRACK 311 AUDIO
    TITLE "0:"
    INDEX 01 05:56:33
  TRACK 312 AUDIO
    TITLE "19:cjc024_0556"
    INDEX 01 05:56:58
  TRACK 313 AUDIO
    TITLE "0:"
    INDEX 01 05:58:59
  TRACK 314 AUDIO
    TITLE "18:cjc024_0557"
    INDEX 01 05:59:58
  TRACK 315 AUDIO
    TITLE "0:"
    INDEX 01 06:00:68
  TRACK 316 AUDIO
    TITLE "19:cjc024_0558"
    INDEX 01 06:01:18
  TRACK 317 AUDIO
    TITLE "0:"
    INDEX 01 06:03:50
  TRACK 318 AUDIO
    TITLE "18:cjc024_0559"
    INDEX 01 06:04:54
  TRACK 319 AUDIO
    TITLE "0:"
    INDEX 01 06:05:47
  TRACK 320 AUDIO
    TITLE "19:cjc024_0560"
    INDEX 01 06:05:73
  TRACK 321 AUDIO
    TITLE "0:"
    INDEX 01 06:07:46
  TRACK 322 AUDIO
    TITLE "18:cjc024_0561"
    INDEX 01 06:08:48
  TRACK 323 AUDIO
    TITLE "0:"
    INDEX 01 06:09:49
  TRACK 324 AUDIO
    TITLE "19:cjc024_0562"
    INDEX 01 06:09:74
  TRACK 325 AUDIO
    TITLE "0:"
    INDEX 01 06:11:69
  TRACK 326 AUDIO
    TITLE "18:cjc024_0563"
    INDEX 01 06:12:71
  TRACK 327 AUDIO
    TITLE "0:"
    INDEX 01 06:14:05
  TRACK 328 AUDIO
    TITLE "19:cjc024_0564"
    INDEX 01 06:14:30
  TRACK 329 AUDIO
    TITLE "0:"
    INDEX 01 06:16:49
  TRACK 330 AUDIO
    TITLE "18:cjc024_0565"
    INDEX 01 06:17:56
  TRACK 331 AUDIO
    TITLE "0:"
    INDEX 01 06:19:08
  TRACK 332 AUDIO
    TITLE "19:cjc024_0566"
    INDEX 01 06:19:38
  TRACK 333 AUDIO
    TITLE "0:"
    INDEX 01 06:22:06
  TRACK 334 AUDIO
    TITLE "18:cjc024_0567"
    INDEX 01 06:23:06
  TRACK 335 AUDIO
    TITLE "0:"
    INDEX 01 06:24:31
  TRACK 336 AUDIO
    TITLE "19:cjc024_0568"
    INDEX 01 06:24:62
  TRACK 337 AUDIO
    TITLE "0:"
    INDEX 01 06:26:55
  TRACK 338 AUDIO
    TITLE "18:cjc024_0569"
    INDEX 01 06:27:63
  TRACK 339 AUDIO
    TITLE "0:"
    INDEX 01 06:28:70
  TRACK 340 AUDIO
    TITLE "19:cjc024_0570"
    INDEX 01 06:29:26
  TRACK 341 AUDIO
    TITLE "0:"
    INDEX 01 06:32:07
  TRACK 342 AUDIO
    TITLE "18:cjc024_0571"
    INDEX 01 06:33:08
  TRACK 343 AUDIO
    TITLE "0:"
    INDEX 01 06:34:27
  TRACK 344 AUDIO
    TITLE "19:cjc024_0572"
    INDEX 01 06:34:57
  TRACK 345 AUDIO
    TITLE "0:"
    INDEX 01 06:37:04
  TRACK 346 AUDIO
    TITLE "18:cjc024_0573"
    INDEX 01 06:38:02
  TRACK 347 AUDIO
    TITLE "0:"
    INDEX 01 06:38:74
  TRACK 348 AUDIO
    TITLE "19:cjc024_0574"
    INDEX 01 06:39:27
  TRACK 349 AUDIO
    TITLE "0:"
    INDEX 01 06:41:33
  TRACK 350 AUDIO
    TITLE "18:cjc024_0575"
    INDEX 01 06:42:33
  TRACK 351 AUDIO
    TITLE "0:"
    INDEX 01 06:43:30
  TRACK 352 AUDIO
    TITLE "19:cjc024_0576"
    INDEX 01 06:43:56
  TRACK 353 AUDIO
    TITLE "0:"
    INDEX 01 06:45:57
  TRACK 354 AUDIO
    TITLE "18:cjc024_0577"
    INDEX 01 06:46:56
  TRACK 355 AUDIO
    TITLE "0:"
    INDEX 01 06:47:51
  TRACK 356 AUDIO
    TITLE "19:cjc024_0578"
    INDEX 01 06:48:00
  TRACK 357 AUDIO
    TITLE "0:"
    INDEX 01 06:50:34
  TRACK 358 AUDIO
    TITLE "18:cjc024_0579"
    INDEX 01 06:51:36
  TRACK 359 AUDIO
    TITLE "0:"
    INDEX 01 06:52:33
  TRACK 360 AUDIO
    TITLE "19:cjc024_0580"
    INDEX 01 06:52:60
  TRACK 361 AUDIO
    TITLE "0:"
    INDEX 01 06:54:61
  TRACK 362 AUDIO
    TITLE "18:cjc024_0581"
    INDEX 01 06:55:63
  TRACK 363 AUDIO
    TITLE "0:"
    INDEX 01 06:56:66
  TRACK 364 AUDIO
    TITLE "19:cjc024_0582"
    INDEX 01 06:57:15
  TRACK 365 AUDIO
    TITLE "0:"
    INDEX 01 06:59:45
  TRACK 366 AUDIO
    TITLE "18:cjc024_0583"
    INDEX 01 07:00:44
  TRACK 367 AUDIO
    TITLE "0:"
    INDEX 01 07:01:57
  TRACK 368 AUDIO
    TITLE "19:cjc024_0584"
    INDEX 01 07:02:10
  TRACK 369 AUDIO
    TITLE "0:"
    INDEX 01 07:04:07
  TRACK 370 AUDIO
    TITLE "18:cjc024_0585"
    INDEX 01 07:05:08
  TRACK 371 AUDIO
    TITLE "0:"
    INDEX 01 07:06:27
  TRACK 372 AUDIO
    TITLE "19:cjc024_0586"
    INDEX 01 07:06:53
  TRACK 373 AUDIO
    TITLE "0:"
    INDEX 01 07:09:06
  TRACK 374 AUDIO
    TITLE "18:cjc024_0587"
    INDEX 01 07:10:11
  TRACK 375 AUDIO
    TITLE "0:"
    INDEX 01 07:11:19
  TRACK 376 AUDIO
    TITLE "19:cjc024_0588"
    INDEX 01 07:11:46
  TRACK 377 AUDIO
    TITLE "0:"
    INDEX 01 07:13:57
  TRACK 378 AUDIO
    TITLE "18:cjc024_0589"
    INDEX 01 07:14:58
  TRACK 379 AUDIO
    TITLE "0:"
    INDEX 01 07:15:65
  TRACK 380 AUDIO
    TITLE "19:cjc024_0590"
    INDEX 01 07:16:20
  TRACK 381 AUDIO
    TITLE "0:"
    INDEX 01 07:19:08
  TRACK 382 AUDIO
    TITLE "18:cjc024_0591"
    INDEX 01 07:20:08
  TRACK 383 AUDIO
    TITLE "0:"
    INDEX 01 07:21:21
  TRACK 384 AUDIO
    TITLE "19:cjc024_0592"
    INDEX 01 07:21:46
  TRACK 385 AUDIO
    TITLE "0:"
    INDEX 01 07:24:08
  TRACK 386 AUDIO
    TITLE "18:cjc024_0593"
    INDEX 01 07:25:07
  TRACK 387 AUDIO
    TITLE "0:"
    INDEX 01 07:26:16
  TRACK 388 AUDIO
    TITLE "19:cjc024_0594"
    INDEX 01 07:26:42
  TRACK 389 AUDIO
    TITLE "0:"
    INDEX 01 07:28:60
  TRACK 390 AUDIO
    TITLE "18:cjc024_0595"
    INDEX 01 07:29:62
  TRACK 391 AUDIO
    TITLE "0:"
    INDEX 01 07:31:02
  TRACK 392 AUDIO
    TITLE "19:cjc024_0596"
    INDEX 01 07:31:33
  TRACK 393 AUDIO
    TITLE "0:"
    INDEX 01 07:33:14
  TRACK 394 AUDIO
    TITLE "18:cjc024_0597"
    INDEX 01 07:34:20
  TRACK 395 AUDIO
    TITLE "0:"
    INDEX 01 07:35:27
  TRACK 396 AUDIO
    TITLE "19:cjc024_0598"
    INDEX 01 07:35:52
  TRACK 397 AUDIO
    TITLE "0:"
    INDEX 01 07:37:57
  TRACK 398 AUDIO
    TITLE "18:cjc024_0599"
    INDEX 01 07:38:59
  TRACK 399 AUDIO
    TITLE "0:"
    INDEX 01 07:40:07
  TRACK 400 AUDIO
    TITLE "19:cjc024_0600"
    INDEX 01 07:40:30
  TRACK 401 AUDIO
    TITLE "0:"
    INDEX 01 07:42:31
